<?xml version="1.0" encoding="utf-8"?>
<!-- Generator: Adobe Illustrator 25.0.0, SVG Export Plug-In . SVG Version: 6.00 Build 0)  -->
<svg version="1.1" id="Layer_1" xmlns="http://www.w3.org/2000/svg" xmlns:xlink="http://www.w3.org/1999/xlink" x="0px" y="0px"
	 width="1058.7px" height="516.9px" viewBox="0 0 1058.7 516.9" style="enable-background:new 0 0 1058.7 516.9;"
	 xml:space="preserve">
<style type="text/css">
	.st0{fill:#252354;}
	.st1{fill:#FFFFFF;}
</style>
<g>
	<path class="st0" d="M173.8,363.3h47.1c2.5,0,4.8,1.4,5.9,3.6l17.1,31.8c0.5,0.9,1.8,1,2.4,0.1l21.4-34c1.2-2,3.4-3.1,5.7-3.1h45.5
		c2.4,0,4.4,2,4.4,4.4v104c0,4.8-3.9,8.8-8.8,8.8h-28.7c-4.8,0-8.8-3.9-8.8-8.8v-35.4l-26.9,34.2c-3.4,4.8-10.4,5-14.1,0.4
		l-27.3-34.6V470c0,4.8-3.9,8.8-8.8,8.8h-21.8c-4.8,0-8.8-3.9-8.8-8.7c0-23.1-0.1-85.3-0.2-102.4
		C169.3,365.2,171.3,363.3,173.8,363.3z"/>
	<path class="st0" d="M332.4,472.4l38.2-105.9c1.1-3,3.9-5,7.1-5h48c2.9,0,5.6,1.7,6.8,4.3l49.1,102c2.4,5-1.2,10.9-6.8,10.9h-39
		l-12.2-22.8H396c-3.7,0-6.4-3.6-5.3-7.1l7.3-23.9h15l-7.8-24.8c0,0,0-0.5-0.8-0.5s-1,0.6-1,0.6l-22.2,70.3
		c-1.6,4.9-6.2,8.2-11.3,8.1l-33.7-0.7C333.4,477.8,331.5,475,332.4,472.4z"/>
	<path class="st0" d="M451.2,361.5h48.7l31.3,33.2l-25.6,29.9c-1.5,1.8-4.2,1.8-5.7,0l-50.7-58.5
		C447.6,364.3,448.9,361.5,451.2,361.5z"/>
	<path class="st0" d="M504,473.4v-34.8c0-3.8,1.3-7.5,3.8-10.4l55.5-66.7H599c4.5,0,6.9,5.3,4,8.7l-48,55l0.2,48.2
		c0,3-2.4,5.4-5.4,5.4h-40.5C506.4,478.8,504,476.4,504,473.4z"/>
	<path class="st0" d="M626.3,361.5h50.3c2.6,0,3.9,3,2.2,4.9l-30.4,34.1c-8,9-8.4,20.9-1.1,30.5c4.1,5.4,11.7,9.4,20.3,6.6
		c5.2-1.7,9.5-3.7,13.1-5.8c11.2-6.7,17.5-19.2,17.7-32.2l0.6-38.1h46v110c0,4-3.2,7.2-7.2,7.2h-30.5c-4,0-7.2-3.2-7.2-7.2v-19.7
		c0,0-23,22.3-49.4,25.6c-27.3,3.4-68.8-30.3-56.6-74c6.2-22,22.1-35.9,27.7-40.3C623.2,362.1,624.7,361.5,626.3,361.5z"/>
	<path class="st0" d="M763.2,361.5h94.7c0,0,31.2,10.7,30.5,35.8c-0.7,25-22,31.3-22,31.3l40.5,40.4c3.6,3.6,1.1,9.7-4,9.7h-47.3
		l-32.1-32.1c-11.1-9.4-19.3-25.1-4.9-33.5c7.3-4.3,18.3-3,20.1-12.2c0.9-4.7-0.5-12.2-8.7-12.8h-25.4c-1.2,0-2.2,1-2.2,2.2v81.5
		c0,3.8-3.1,6.9-6.9,6.9h-30.1c-3.8,0-6.9-3.1-6.9-6.9l0.3-105.9C758.8,363.5,760.8,361.5,763.2,361.5z"/>
	<path class="st0" d="M1052.1,173.2h-166c-6.6,0-9,8.6-3.4,12c16,9.6,34.6,25.1,39.8,47.5v62.1h-8.1
		C876.8,193,777.7,197,744.8,201.4c-4.4-23.1-21.5-77.2-86.4-113.2c-82.1-45.5-130.5-82.5-131-82.8L520.3,0l-6.2,6.4
		c-0.2,0.2-21.3,21.5-106.8,70.1c-86.2,49.1-99.8,106.7-101.1,132.2c-116.4-14.1-148.7,84.8-149,85.9l0.5,0.2h-21.6v-62.1
		c5.1-22.4,23.7-38,39.8-47.5c5.6-3.4,3.2-12-3.4-12H6.5c-6.6,0-9,8.7-3.3,12c18,10.6,40.1,27.5,43.1,47v245.6
		C37,490.4,25,499.2,13.8,505.1c-5.9,3.1-3.7,11.9,2.9,11.9h154.9c6.6,0,8.7-8.8,2.9-11.9c-21.7-11.4-32.7-26.3-32.7-26.3V347.9
		h775.4v130.8c0,0-11.1,14.8-32.7,26.3c-5.8,3.1-3.7,11.9,2.9,11.9h154.9c6.6,0,8.8-8.8,2.9-11.9c-11.3-5.9-23.3-14.6-32.5-27.3
		V232.2c2.6-19.6,24.8-36.4,42.7-47C1061.1,181.8,1058.7,173.2,1052.1,173.2z M314.7,230.3l13.6,2.4l-2-13.7
		c-0.4-2.8-8.6-68.4,90.9-125c64-36.4,93-58,104.6-67.7c16,11.7,60,42.5,126.8,79.5c72.7,40.3,77.5,105.1,77.7,107.8l0.7,12
		l11.7-2.8c4.7-1.1,112.5-25.3,153.8,72h-11.4c-28-75.4-129.1-67.7-156.8-64c-4.8-21.8-23.1-81.8-82.2-114.6
		C570.3,76.3,527.9,44,527.5,43.7l-5.1-3.9l-4.5,4.6c-0.2,0.2-18.6,18.8-93.6,61.5c-79.3,45.1-90.6,111.3-92,134.6
		c-92.5-13-130,43.3-136.3,54.2h-17.6C186.8,275.1,220.9,213.3,314.7,230.3z M865.3,294.7H524.5v0.1H213.3
		c12.3-16.7,47.5-51.7,122.4-39.1c2.8,0.4,5.6-0.3,7.7-2.1c2.1-1.7,3.3-4.3,3.3-7c0-13.3,4-82,84.9-128.1
		c57.7-32.8,82.8-51.8,92.1-59.7c13.2,9.6,52.6,37.4,111.5,70c61.3,34,74.8,102.5,76.1,110.1c0.3,2.2,1.5,4.2,3.3,5.5l3.3,1.9l3-0.5
		C732.8,243.8,835.5,228.9,865.3,294.7z M931.6,491.5l1.4-1.4c8.6-8.6,13.3-20.2,13.3-32.3V333.6H117v124.2
		c0,12.1,4.8,23.7,13.3,32.2l1.4,1.4H57l0.4-0.3c10.2-8.6,16-21.3,16-34.6V236.8c0-12.1-4.8-23.7-13.3-32.2l-1.9-1.9h73.5l-1.7,1.7
		c-8.5,8.5-13.3,20.1-13.3,32.2v76.2h829.9v-76.2c0-12.1-4.8-23.7-13.3-32.2l-1.7-1.7h73.5l-1.9,1.9c-8.5,8.5-13.3,20.1-13.3,32.2
		v219.8c0,13.3,5.9,25.9,16,34.6l0.4,0.3H931.6z"/>
	<path class="st0" d="M521.6,80.1c-32.3,11.9-45.2,46.6-45.2,46.6c26.7,15.9,47.7,53.8,47.7,53.8c14.6-35.7,44.5-54.3,44.5-54.3
		C555.9,104.4,548.5,92.4,521.6,80.1z M523.3,160.5c-7.1-10.6-19-26.3-33.4-36.6c4.2-8.1,14.2-24.1,31.6-31.5
		c18,8.7,24.5,17.3,33.2,31.8C547.1,130,533.6,142.2,523.3,160.5z"/>
	<circle class="st0" cx="522.8" cy="124.2" r="13"/>
	<path class="st0" d="M525.2,263.3c-9.5,26.3-52,37.2-52,37.2h103.4C540.2,294.7,525.2,263.3,525.2,263.3z M509.9,294.9
		c5.7-4.4,11.3-7.4,15.8-12.9c3.9,4.6,8.5,7.8,14.5,12.9H509.9z"/>
	<path class="st0" d="M474.7,183c0,0-5.4-15.4,4-14.7c9,0.8,21.5,16.3,23.1,18.3c-0.5-3.2-8.8-42.1-35.7-43.7
		c-27.9-1.8-34,25.5-34,25.5c29-6.4,25.8,13,25.8,13c-5.4-0.6-12.2,0.3-24.8,12.3c-12.7,11.9-27.2,13.3-27.2,13.3
		c33.8,27.5,69.5,0.3,69.5,0.3c20.5,19.4-8.3,34.9-8.3,34.9s-5.6-25.6-34.6-21.8c-28.8,3.8-42.1,33-42.1,33
		c-10.7-2.4-19.2-20.5-19.2-20.5s-9.8,22.4-35.6,30.4c-25.9,8-41.8,34.6-41.8,34.6h62.3c6.6-10.9,52.5-14.3,89.4-22.6
		c36.7-8.2,61.7-25.5,63.3-55.7C510.4,189.1,474.7,183,474.7,183z M463.3,263.1c0,0-33.6,12.8-59.7,13.8c-26.1,1-47.2,6.4-57,10.4
		c-9.6,4.2-32.7,0.8-32.7,0.8s13.1-15.2,31.4-17.3s27.1-19.7,27.1-19.7s14.1,13.8,27.4,15.9c0,0,2.1-38.1,34.3-38.9
		C466.2,227.2,463.3,263.1,463.3,263.1z M440.2,161.4c1-1.8,11.1-17.3,28.2-12.8c17.9,4.8,22.1,20,22.1,20s-18.6-13.2-21.1,0.8
		c-2.1,11.9-7.3,8.3-9.6-0.6C455.9,153.5,445.8,157.1,440.2,161.4z M429.2,205.9c13.1-22.4,34.9-15.7,34.9-15.7s-7,1.8-13.6,11.1
		C443.8,210.4,429.2,205.9,429.2,205.9z M467.6,263.7c2.6-2.6,19.1-18.7,20.5-36.2c1.1-13.9-3.5-24.2-13.3-25.8
		c-9.6-1.8-8.5,14.3-29.1,6.6c0,0,9.4-3.2,14.1-10.4c4.6-7,16.2-10.9,26.7-4.2c10.6,6.6,21.9,22.6,14.1,39.1
		C493.4,248.2,470.5,262,467.6,263.7z"/>
	<path class="st0" d="M540.1,219.5c1.6,30.3,26.6,47.6,63.3,55.7c36.8,8.3,82.8,11.7,89.4,22.6h62.3c0,0-15.9-26.6-41.8-34.6
		c-25.8-8-35.6-30.4-35.6-30.4s-8.5,18.1-19.2,20.5c0,0-13.3-29.1-42.1-33c-29-3.8-34.6,21.8-34.6,21.8s-28.8-15.5-8.3-34.9
		c0,0,35.7,27.2,69.5-0.3c0,0-14.6-1.4-27.2-13.3c-12.7-12-19.4-13-24.8-12.3c0,0-3.2-19.4,25.8-13c0,0-6.1-27.2-34-25.5
		c-26.9,1.6-35.2,40.5-35.7,43.7c1.6-1.9,14.1-17.5,23.1-18.3c9.4-0.6,4,14.7,4,14.7S538.4,189.1,540.1,219.5z M614.7,228
		c32.2,0.8,34.3,38.9,34.3,38.9c13.3-2.1,27.4-15.9,27.4-15.9s8.8,17.6,27.1,19.7c18.3,2.1,31.4,17.3,31.4,17.3s-23.1,3.4-32.7-0.8
		c-9.8-4-30.9-9.4-57-10.4c-26.1-1-59.7-13.8-59.7-13.8S582.6,227.2,614.7,228z M588.9,168.8c-2.3,8.9-7.4,12.5-9.6,0.6
		c-2.5-14-21.1-0.8-21.1-0.8s4.2-15.2,22.1-20c17.1-4.5,27.2,11.1,28.2,12.8C602.9,157.1,592.9,153.5,588.9,168.8z M598.3,201.3
		c-6.6-9.3-13.6-11.1-13.6-11.1s21.8-6.7,34.9,15.7C619.6,205.9,605,210.4,598.3,201.3z M548.1,232.8c-7.8-16.5,3.5-32.5,14.1-39.1
		c10.6-6.7,22.1-2.9,26.7,4.2c4.6,7.2,14.1,10.4,14.1,10.4c-20.7,7.7-19.5-8.3-29.1-6.6c-9.8,1.6-14.4,11.9-13.3,25.8
		c1.4,17.5,17.9,33.6,20.5,36.2C578.2,262,555.3,248.2,548.1,232.8z"/>
</g>
<g>
	<path class="st1" d="M1283.2,363.3h47.1c2.5,0,4.8,1.4,5.9,3.6l17.1,31.8c0.5,0.9,1.8,1,2.4,0.1l21.4-34c1.2-2,3.4-3.1,5.7-3.1
		h45.5c2.4,0,4.4,2,4.4,4.4v104c0,4.8-3.9,8.8-8.8,8.8h-28.7c-4.8,0-8.8-3.9-8.8-8.8v-35.4l-26.9,34.2c-3.4,4.8-10.4,5-14.1,0.4
		l-27.3-34.6V470c0,4.8-3.9,8.8-8.8,8.8h-21.8c-4.8,0-8.8-3.9-8.8-8.7c0-23.1-0.1-85.3-0.2-102.4
		C1278.8,365.2,1280.8,363.3,1283.2,363.3z"/>
	<path class="st1" d="M1441.9,472.4l38.2-105.9c1.1-3,3.9-5,7.1-5h48c2.9,0,5.6,1.7,6.8,4.3l49.1,102c2.4,5-1.2,10.9-6.8,10.9h-39
		l-12.2-22.8h-27.6c-3.7,0-6.4-3.6-5.3-7.1l7.3-23.9h15l-7.8-24.8c0,0,0-0.5-0.8-0.5c-0.8,0-1,0.6-1,0.6l-22.2,70.3
		c-1.6,4.9-6.2,8.2-11.3,8.1l-33.7-0.7C1442.8,477.8,1440.9,475,1441.9,472.4z"/>
	<path class="st1" d="M1560.7,361.5h48.7l31.3,33.2l-25.6,29.9c-1.5,1.8-4.2,1.8-5.7,0l-50.7-58.5
		C1557.1,364.3,1558.3,361.5,1560.7,361.5z"/>
	<path class="st1" d="M1613.5,473.4v-34.8c0-3.8,1.3-7.5,3.8-10.4l55.5-66.7h35.7c4.5,0,6.9,5.3,4,8.7l-48,55l0.2,48.2
		c0,3-2.4,5.4-5.4,5.4h-40.5C1615.9,478.8,1613.5,476.4,1613.5,473.4z"/>
	<path class="st1" d="M1735.8,361.5h50.3c2.6,0,3.9,3,2.2,4.9l-30.4,34.1c-8,9-8.4,20.9-1.1,30.5c4.1,5.4,11.7,9.4,20.3,6.6
		c5.2-1.7,9.5-3.7,13.1-5.8c11.2-6.7,17.5-19.2,17.7-32.2l0.6-38.1h46v110c0,4-3.2,7.2-7.2,7.2h-30.5c-4,0-7.2-3.2-7.2-7.2v-19.7
		c0,0-23,22.3-49.4,25.6c-27.3,3.4-68.8-30.3-56.6-74c6.2-22,22.1-35.9,27.7-40.3C1732.7,362.1,1734.2,361.5,1735.8,361.5z"/>
	<path class="st1" d="M1872.7,361.5h94.7c0,0,31.2,10.7,30.5,35.8c-0.7,25-22,31.3-22,31.3l40.5,40.4c3.6,3.6,1.1,9.7-4,9.7h-47.3
		l-32.1-32.1c-11.1-9.4-19.3-25.1-4.9-33.5c7.3-4.3,18.3-3,20.1-12.2c0.9-4.7-0.5-12.2-8.7-12.8h-25.4c-1.2,0-2.2,1-2.2,2.2v81.5
		c0,3.8-3.1,6.9-6.9,6.9h-30.1c-3.8,0-6.9-3.1-6.9-6.9l0.3-105.9C1868.2,363.5,1870.2,361.5,1872.7,361.5z"/>
	<path class="st1" d="M2161.6,173.1h-166.1c-6.6,0-9,8.7-3.4,12c16,9.6,34.6,25.1,39.8,47.5v62.1h-8.1
		c-37.5-101.7-136.6-97.7-169.6-93.3c-4.4-23.1-21.5-77.2-86.4-113.2c-82.1-45.6-130.5-82.5-131-82.8l-7.1-5.4l-6.2,6.4
		c-0.2,0.2-21.3,21.5-106.8,70.1c-86.2,49.1-99.8,106.7-101.2,132.2c-116.4-14.1-148.7,84.8-149,85.9l0.5,0.2h-21.5v-62.1
		c5.1-22.4,23.7-38,39.8-47.5c5.6-3.4,3.2-12-3.4-12h-166c-6.6,0-9,8.7-3.3,12c18,10.6,40.1,27.5,43.1,47v245.6
		c-9.3,12.7-21.3,21.4-32.5,27.3c-5.9,3.1-3.7,11.9,2.9,11.9H1281c6.6,0,8.7-8.8,2.9-11.9c-21.7-11.4-32.7-26.3-32.7-26.3V347.9
		h775.4v130.8c0,0-11.1,14.8-32.7,26.3c-5.8,3.1-3.7,11.9,2.9,11.9h154.7c6.7,0,8.8-8.8,2.9-11.9c-11.3-5.9-23.3-14.6-32.6-27.3
		V232.2c2.9-19.5,25.1-36.4,43.1-47C2170.6,181.8,2168.2,173.1,2161.6,173.1z M1424.1,230.3l13.6,2.4l-2-13.7
		c-0.4-2.8-8.6-68.4,90.9-125c64-36.4,93-58,104.6-67.7c16,11.6,60,42.5,126.8,79.5c72.7,40.3,77.5,105.1,77.7,107.8l0.7,12
		l11.7-2.8c4.7-1.1,112.5-25.3,153.8,72h-11.4c-28-75.4-129.1-67.7-156.8-64c-4.8-21.8-23-81.8-82.2-114.6
		C1679.8,76.3,1637.4,44,1637,43.7l-5.2-3.9l-4.5,4.6c-0.2,0.2-18.6,18.8-93.6,61.5c-79.3,45.1-90.6,111.3-92,134.6
		c-92.5-13-130,43.3-136.3,54.2h-17.6C1296.3,275.1,1330.3,213.3,1424.1,230.3z M1974.7,294.8h-652c12.3-16.7,47.6-51.7,122.4-39.1
		c2.8,0.4,5.6-0.3,7.7-2.1c2.1-1.7,3.3-4.3,3.3-7c0-13.3,4-82,84.9-128.1c57.7-32.8,82.8-51.8,92.1-59.7
		c13.1,9.6,52.6,37.4,111.5,70.1c61.3,34,74.8,102.5,76.1,110.1c0.4,2.2,1.5,4.2,3.4,5.5l3.3,1.9l3-0.5
		C1842.3,243.8,1944.9,228.9,1974.7,294.8z M2041.1,491.5l1.4-1.4c8.5-8.5,13.3-20.1,13.3-32.2V333.6h-829.3v124.2
		c0,12.1,4.8,23.7,13.3,32.2l1.4,1.4h-74.7l0.4-0.3c10.1-8.6,16-21.3,16-34.6V236.8c0-12.1-4.8-23.7-13.3-32.2l-1.9-1.9h73.5
		l-1.7,1.7c-8.5,8.5-13.3,20.1-13.3,32.2v76.2h830.1v-76.2c0-12.1-4.8-23.7-13.3-32.2l-1.7-1.7h73.5l-1.9,1.9
		c-8.5,8.5-13.3,20.1-13.3,32.2v219.7c0,13.3,5.8,26,16,34.6l0.4,0.3h-74.9V491.5z"/>
	<path class="st1" d="M1631.1,80.1c-32.3,11.9-45.2,46.6-45.2,46.6c26.7,15.9,47.7,53.8,47.7,53.8c14.6-35.7,44.5-54.3,44.5-54.3
		C1665.3,104.4,1658,92.4,1631.1,80.1z M1632.7,160.5c-7.1-10.6-19-26.3-33.4-36.6c4.2-8.1,14.2-24.1,31.6-31.5
		c18,8.7,24.5,17.3,33.2,31.8C1656.5,130,1643,142.2,1632.7,160.5z"/>
	<circle class="st1" cx="1632.3" cy="124.2" r="13"/>
	<path class="st1" d="M1634.7,263.3c-9.5,26.3-52,37.2-52,37.2h103.4C1649.7,294.7,1634.7,263.3,1634.7,263.3z M1619.3,294.9
		c5.7-4.4,11.3-7.4,15.8-12.9c3.9,4.6,8.5,7.8,14.5,12.9H1619.3z"/>
	<path class="st1" d="M1584.1,183c0,0-5.4-15.4,4-14.7c9,0.8,21.5,16.3,23.1,18.3c-0.5-3.2-8.8-42.1-35.7-43.7
		c-27.9-1.8-34,25.5-34,25.5c29-6.4,25.8,13,25.8,13c-5.4-0.6-12.2,0.3-24.8,12.3c-12.7,11.9-27.2,13.3-27.2,13.3
		c33.8,27.5,69.5,0.3,69.5,0.3c20.5,19.4-8.3,34.9-8.3,34.9s-5.6-25.6-34.6-21.8c-28.8,3.8-42.1,33-42.1,33
		c-10.7-2.4-19.2-20.5-19.2-20.5s-9.8,22.4-35.6,30.4c-25.9,8-41.8,34.6-41.8,34.6h62.3c6.6-10.9,52.5-14.3,89.4-22.6
		c36.7-8.2,61.7-25.5,63.3-55.7C1619.8,189.1,1584.1,183,1584.1,183z M1572.8,263.1c0,0-33.6,12.8-59.7,13.8
		c-26.1,1-47.2,6.4-57,10.4c-9.6,4.2-32.7,0.8-32.7,0.8s13.1-15.2,31.4-17.3c18.3-2.1,27.1-19.7,27.1-19.7s14.1,13.8,27.4,15.9
		c0,0,2.1-38.1,34.3-38.9C1575.6,227.2,1572.8,263.1,1572.8,263.1z M1549.7,161.4c1-1.8,11.1-17.3,28.2-12.8
		c17.9,4.8,22.1,20,22.1,20s-18.6-13.2-21.1,0.8c-2.1,11.9-7.3,8.3-9.6-0.6C1565.3,153.5,1555.3,157.1,1549.7,161.4z M1538.7,205.9
		c13.1-22.4,34.9-15.7,34.9-15.7s-7,1.8-13.6,11.1C1553.2,210.4,1538.7,205.9,1538.7,205.9z M1577.1,263.7
		c2.6-2.6,19.1-18.7,20.5-36.2c1.1-13.9-3.5-24.2-13.3-25.8c-9.6-1.8-8.5,14.3-29.1,6.6c0,0,9.4-3.2,14.1-10.4
		c4.6-7,16.2-10.9,26.7-4.2c10.6,6.6,21.9,22.6,14.1,39.1C1602.9,248.2,1580,262,1577.1,263.7z"/>
	<path class="st1" d="M1649.6,219.5c1.6,30.3,26.6,47.6,63.3,55.7c36.8,8.3,82.8,11.7,89.4,22.6h62.2c0,0-15.9-26.6-41.8-34.6
		c-25.8-8-35.6-30.4-35.6-30.4s-8.5,18.1-19.2,20.5c0,0-13.3-29.1-42.1-33c-29-3.8-34.6,21.8-34.6,21.8s-28.8-15.5-8.3-34.9
		c0,0,35.7,27.2,69.5-0.3c0,0-14.6-1.4-27.2-13.3c-12.7-12-19.4-13-24.8-12.3c0,0-3.2-19.4,25.8-13c0,0-6.1-27.2-34-25.5
		c-26.9,1.6-35.2,40.5-35.7,43.7c1.6-1.9,14.1-17.5,23.1-18.3c9.4-0.6,4,14.7,4,14.7S1647.8,189.1,1649.6,219.5z M1724.2,228
		c32.2,0.8,34.3,38.9,34.3,38.9c13.3-2.1,27.4-15.9,27.4-15.9s8.8,17.6,27.1,19.7c18.3,2.1,31.4,17.3,31.4,17.3s-23.1,3.4-32.7-0.8
		c-9.8-4-30.9-9.4-57-10.4S1695,263,1695,263S1692,227.2,1724.2,228z M1698.4,168.8c-2.3,8.9-7.4,12.5-9.6,0.6
		c-2.5-14-21.1-0.8-21.1-0.8s4.2-15.2,22.1-20c17.1-4.5,27.2,11.1,28.2,12.8C1712.4,157.1,1702.3,153.5,1698.4,168.8z M1707.7,201.3
		c-6.6-9.3-13.6-11.1-13.6-11.1s21.8-6.7,34.9,15.7C1729,205.9,1714.4,210.4,1707.7,201.3z M1657.6,232.8
		c-7.8-16.5,3.5-32.5,14.1-39.1c10.6-6.7,22.1-2.9,26.7,4.2c4.6,7.2,14.1,10.4,14.1,10.4c-20.7,7.7-19.5-8.3-29.1-6.6
		c-9.8,1.6-14.4,11.9-13.3,25.8c1.4,17.5,17.9,33.6,20.5,36.2C1687.7,262,1664.8,248.2,1657.6,232.8z"/>
</g>
</svg>
